<svg xmlns="http://www.w3.org/2000/svg" viewBox="0 0 64 64">
  <defs>
    <linearGradient id="g" x1="0" y1="0" x2="1" y2="1">
      <stop offset="0%" stop-color="#00dbe9"/>
      <stop offset="100%" stop-color="#4edea3"/>
    </linearGradient>
  </defs>
  <rect width="64" height="64" rx="14" fill="#050505"/>
  <path d="M32 12 C22 12 14 20 14 30 C14 42 22 54 32 54 C42 54 50 42 50 30 C50 20 42 12 32 12 Z M32 20 C38 20 42 24 42 30 C42 38 38 46 32 46 C26 46 22 38 22 30 C22 24 26 20 32 20 Z" fill="url(#g)"/>
  <rect x="28" y="8" width="8" height="12" rx="2" fill="#ffffff"/>
</svg>
